<svg width="16" height="16" viewBox="0 0 16 16" fill="none" xmlns="http://www.w3.org/2000/svg">
<path d="M14 0H2C0.89543 0 0 0.89543 0 2V14C0 15.1046 0.89543 16 2 16H14C15.1046 16 16 15.1046 16 14V2C16 0.89543 15.1046 0 14 0Z" fill="url(#paint0_linear_30_255)"/>
<path d="M9.7673 2.85715H12.3136V9.75614C12.3136 10.5783 12.1419 11.2747 11.7985 11.8454C11.4552 12.4113 10.974 12.8393 10.3549 13.1295C9.73586 13.4196 9.008 13.5647 8.17132 13.5647C7.34431 13.5647 6.61644 13.4196 5.98772 13.1295C5.36384 12.8393 4.87537 12.4113 4.52232 11.8454C4.17411 11.2747 4 10.5783 4 9.75614V2.85715H6.55357V9.75614C6.55357 10.1914 6.61644 10.5469 6.74219 10.8225C6.86793 11.0934 7.05171 11.2917 7.29353 11.4174C7.53534 11.5432 7.82794 11.606 8.17132 11.606C8.51953 11.606 8.81213 11.5432 9.04911 11.4174C9.28609 11.2917 9.46503 11.0934 9.58594 10.8225C9.70684 10.5469 9.7673 10.1914 9.7673 9.75614V2.85715Z" fill="white"/>
<defs>
<linearGradient id="paint0_linear_30_255" x1="-1.06667" y1="14.9333" x2="20.2667" y2="7.73536e-08" gradientUnits="userSpaceOnUse">
<stop stop-color="#C60EE1"/>
<stop offset="1" stop-color="#960DDC"/>
</linearGradient>
</defs>
</svg>
