<svg width="93" height="83" viewBox="0 0 93 83" fill="none" xmlns="http://www.w3.org/2000/svg">
<g filter="url(#filter0_i_29_199)">
<path d="M65.4309 5.62821e-08H27.1169C25.7206 -0.000166089 24.3489 0.367518 23.1399 1.06604C21.9309 1.76456 20.9272 2.76926 20.2299 3.979L1.06195 37.235C0.366218 38.4421 0 39.8108 0 41.204C0 42.5972 0.366218 43.9659 1.06195 45.173L20.2299 78.43C20.9272 79.6397 21.9309 80.6444 23.1399 81.343C24.3489 82.0415 25.7206 82.4092 27.1169 82.409H65.4309C66.8272 82.4089 68.1988 82.041 69.4076 81.3423C70.6164 80.6436 71.6199 79.6388 72.3169 78.429L91.4869 45.173C92.1827 43.9659 92.5489 42.5972 92.5489 41.204C92.5489 39.8108 92.1827 38.4421 91.4869 37.235L72.3159 3.98C71.619 2.77037 70.6157 1.76565 69.407 1.06697C68.1984 0.368288 66.827 0.000286474 65.4309 5.62821e-08Z" fill="url(#paint0_linear_29_199)"/>
</g>
<path d="M52.3965 19.3438H62.6797V47.2051C62.6797 50.5254 61.9863 53.3379 60.5996 55.6426C59.2129 57.9277 57.2695 59.6562 54.7695 60.8281C52.2695 62 49.3301 62.5859 45.9512 62.5859C42.6113 62.5859 39.6719 62 37.1328 60.8281C34.6133 59.6562 32.6406 57.9277 31.2148 55.6426C29.8086 53.3379 29.1055 50.5254 29.1055 47.2051V19.3438H39.418V47.2051C39.418 48.9629 39.6719 50.3984 40.1797 51.5117C40.6875 52.6055 41.4297 53.4062 42.4062 53.9141C43.3828 54.4219 44.5645 54.6758 45.9512 54.6758C47.3574 54.6758 48.5391 54.4219 49.4961 53.9141C50.4531 53.4062 51.1758 52.6055 51.6641 51.5117C52.1523 50.3984 52.3965 48.9629 52.3965 47.2051V19.3438Z" fill="white"/>
<defs>
<filter id="filter0_i_29_199" x="0" y="0" width="92.5488" height="82.409" filterUnits="userSpaceOnUse" color-interpolation-filters="sRGB">
<feFlood flood-opacity="0" result="BackgroundImageFix"/>
<feBlend mode="normal" in="SourceGraphic" in2="BackgroundImageFix" result="shape"/>
<feColorMatrix in="SourceAlpha" type="matrix" values="0 0 0 0 0 0 0 0 0 0 0 0 0 0 0 0 0 0 127 0" result="hardAlpha"/>
<feOffset/>
<feGaussianBlur stdDeviation="1.717"/>
<feComposite in2="hardAlpha" operator="arithmetic" k2="-1" k3="1"/>
<feColorMatrix type="matrix" values="0 0 0 0 0 0 0 0 0 0 0 0 0 0 0 0 0 0 0.65 0"/>
<feBlend mode="normal" in2="shape" result="effect1_innerShadow_29_199"/>
</filter>
<linearGradient id="paint0_linear_29_199" x1="46.2739" y1="5.62821e-08" x2="46.2739" y2="82.409" gradientUnits="userSpaceOnUse">
<stop stop-color="#C60EE1"/>
<stop offset="1" stop-color="#960DDC"/>
</linearGradient>
</defs>
</svg>
